<?xml version="1.0" encoding="utf-8"?>
<!-- Generator: Adobe Illustrator 22.1.0, SVG Export Plug-In . SVG Version: 6.00 Build 0)  -->
<svg version="1.1" id="Слой_1" xmlns="http://www.w3.org/2000/svg" xmlns:xlink="http://www.w3.org/1999/xlink" x="0px" y="0px"
	 width="210px" height="210px" viewBox="0 0 210 210" style="enable-background:new 0 0 210 210;" xml:space="preserve">
<style type="text/css">
	.st0{fill:#0076BD;}
	.st1{fill:#EF2A1F;}
	.st2{fill:#F7D100;}
</style>
<g>
	<g>
		<g>
			<g>
				<path d="M194,104.3h13c0,13.2-2.6,26.7-7.8,39c-5.1,12.4-12.7,23.6-22.1,33.1c-9.4,9.4-20.7,17-33.1,22.1s-25.8,7.8-39,7.8
					s-26.7-2.6-39-7.8c-12.4-5.1-23.7-12.7-33.1-22.1c-9.4-9.4-17-20.7-22.1-33.1c-5.1-12.4-7.8-25.8-7.8-39s2.6-26.7,7.8-39
					c5.1-12.4,12.7-23.7,22.1-33.1s20.7-17,33.1-22.1s25.8-7.8,39-7.8s26.7,2.6,39,7.8c12.4,5.1,23.6,12.7,33.1,22.1
					c9.4,9.4,17,20.7,22.1,33.1s7.8,25.8,7.8,39L194,104.3c0-11.6-2.3-23.3-6.8-34.1s-11.1-20.6-19.3-28.8S149.8,26.6,139,22.1
					s-22.5-6.8-34.1-6.8s-23.3,2.3-34.1,6.8S50.2,33.2,42,41.4S27.2,59.5,22.7,70.2C18.3,81,16,92.7,16,104.3s2.3,23.3,6.8,34.1
					c4.5,10.8,11.1,20.6,19.3,28.9c8.2,8.2,18.1,14.8,28.8,19.3c10.8,4.5,22.5,6.8,34.1,6.8s23.3-2.3,34.1-6.8s20.6-11.1,28.9-19.3
					c8.2-8.2,14.8-18.1,19.3-28.9C191.7,127.5,194,115.8,194,104.3z"/>
			</g>
			<g>
				<path class="st0" d="M174.5,104.3h13c0,10.7-2.1,21.6-6.3,31.6c-4.1,10-10.3,19.1-17.9,26.8c-7.6,7.6-16.8,13.7-26.8,17.9
					c-10,4.1-20.8,6.3-31.6,6.3c-10.7,0-21.6-2.1-31.6-6.3c-10-4.1-19.1-10.3-26.8-17.9c-7.6-7.6-13.7-16.8-17.9-26.8
					c-4.1-10-6.3-20.8-6.3-31.6c0-10.7,2.1-21.6,6.3-31.6c4.1-10,10.2-19.1,17.9-26.8c7.6-7.6,16.8-13.7,26.8-17.9
					c10-4.1,20.8-6.3,31.6-6.3c10.7,0,21.6,2.1,31.6,6.3c10,4.1,19.1,10.2,26.8,17.9c7.6,7.6,13.7,16.8,17.9,26.8
					c4.1,10,6.3,20.8,6.3,31.6L174.5,104.3c0-9.1-1.8-18.2-5.3-26.6s-8.6-16.1-15.1-22.5s-14.1-11.6-22.5-15
					c-8.4-3.5-17.5-5.3-26.6-5.3s-18.2,1.8-26.6,5.3s-16.1,8.6-22.5,15s-11.6,14.1-15,22.5c-3.5,8.4-5.3,17.5-5.3,26.6
					s1.8,18.2,5.3,26.6c3.5,8.4,8.6,16.1,15,22.5S70,165,78.4,168.5s17.5,5.3,26.6,5.3s18.2-1.8,26.6-5.3s16.1-8.6,22.5-15.1
					s11.6-14.1,15.1-22.5C172.7,122.4,174.5,113.3,174.5,104.3z"/>
			</g>
			<g>
				<path class="st1" d="M155,104.3h13c0,8.2-1.6,16.5-4.8,24.1c-3.1,7.6-7.8,14.6-13.6,20.4c-5.8,5.8-12.8,10.5-20.4,13.6
					c-7.6,3.2-15.9,4.8-24.1,4.8s-16.5-1.6-24.1-4.8c-7.6-3.1-14.6-7.8-20.4-13.6S50.1,136,46.9,128.4c-3.2-7.6-4.8-15.9-4.8-24.1
					s1.6-16.5,4.8-24.1s7.8-14.6,13.7-20.4C66.4,54,73.4,49.3,81,46.1s15.9-4.8,24.1-4.8s16.5,1.6,24.1,4.8
					c7.6,3.2,14.6,7.8,20.4,13.7c5.8,5.8,10.5,12.8,13.6,20.4c3.2,7.6,4.8,15.9,4.8,24.1L155,104.3c0-6.6-1.3-13.1-3.8-19.1
					S145,73.6,140.4,69s-10.2-8.3-16.2-10.8s-12.6-3.8-19.1-3.8c-6.6,0-13.1,1.3-19.1,3.8S74.4,64.4,69.8,69S61.5,79.2,59,85.2
					s-3.8,12.6-3.8,19.1c0,6.6,1.3,13.1,3.8,19.1s6.2,11.6,10.8,16.2S80,147.9,86,150.4s12.6,3.8,19.1,3.8c6.6,0,13.1-1.3,19.1-3.8
					s11.6-6.2,16.2-10.8s8.3-10.2,10.8-16.2C153.7,117.3,154.9,110.8,155,104.3z"/>
			</g>
			<g>
				<path class="st2" d="M135.5,104.3h13c0,5.7-1.1,11.4-3.3,16.6c-2.2,5.3-5.4,10.1-9.4,14.1s-8.9,7.3-14.1,9.4
					c-5.3,2.2-10.9,3.3-16.6,3.3s-11.4-1.1-16.6-3.3c-5.3-2.2-10.1-5.4-14.1-9.4s-7.3-8.9-9.4-14.1c-2.2-5.3-3.3-10.9-3.3-16.6
					s1.1-11.4,3.3-16.6c2.2-5.3,5.4-10.1,9.4-14.1s8.9-7.3,14.1-9.4c5.3-2.2,10.9-3.3,16.6-3.3s11.4,1.1,16.6,3.3
					c5.3,2.2,10.1,5.4,14.1,9.4s7.3,8.9,9.4,14.1c2.2,5.3,3.3,10.9,3.3,16.6H135.5c0-4.1-0.8-8-2.3-11.7s-3.8-7.1-6.6-9.9
					c-2.8-2.8-6.2-5.1-9.9-6.6c-3.7-1.5-7.6-2.3-11.7-2.3s-8,0.8-11.7,2.3s-7.1,3.8-9.9,6.6c-2.8,2.8-5.1,6.2-6.6,9.9
					c-1.5,3.7-2.3,7.6-2.3,11.7s0.8,8,2.3,11.7s3.8,7.1,6.6,9.9c2.8,2.8,6.2,5.1,9.9,6.6c3.7,1.5,7.6,2.3,11.7,2.3s8-0.8,11.7-2.3
					s7.1-3.8,9.9-6.6c2.8-2.8,5.1-6.2,6.6-9.9C134.7,112.2,135.4,108.3,135.5,104.3z"/>
			</g>
			<g>
				<path d="M116,104.3h13c0,3.2-0.6,6.3-1.8,9.2c-1.2,2.9-3,5.5-5.2,7.8c-2.2,2.2-4.9,4-7.8,5.2s-5.9,1.8-9.2,1.8
					c-3.2,0-6.3-0.6-9.2-1.8c-2.9-1.2-5.5-3-7.8-5.2c-2.2-2.2-4-4.9-5.2-7.8s-1.8-5.9-1.8-9.2c0-3.2,0.6-6.3,1.8-9.2
					c1.2-2.9,3-5.5,5.2-7.8c2.2-2.2,4.9-4,7.8-5.2s5.9-1.8,9.2-1.8c3.2,0,6.3,0.6,9.2,1.8c2.9,1.2,5.5,3,7.8,5.2
					c2.2,2.2,4,4.9,5.2,7.8s1.8,5.9,1.8,9.2H116c0-1.6-0.3-2.9-0.8-4.2c-0.5-1.3-1.3-2.5-2.4-3.6c-1.1-1-2.3-1.8-3.6-2.4
					c-1.3-0.5-2.6-0.8-4.2-0.8s-2.9,0.3-4.2,0.8c-1.3,0.5-2.5,1.3-3.6,2.4c-1,1.1-1.8,2.3-2.4,3.6c-0.5,1.3-0.8,2.6-0.8,4.2
					s0.3,2.9,0.8,4.2c0.5,1.3,1.3,2.5,2.4,3.6c1.1,1,2.3,1.8,3.6,2.4c1.3,0.5,2.6,0.8,4.2,0.8s2.9-0.3,4.2-0.8
					c1.3-0.5,2.5-1.3,3.6-2.4c1-1.1,1.8-2.3,2.4-3.6C115.7,107.1,115.9,105.8,116,104.3z"/>
			</g>
		</g>
	</g>
</g>
</svg>
